/* XPM */
static char *kcnrtl[] = {
/* columns rows colors chars-per-pixel */
"56 56 243 2 ",
"   c #55F522530015",
".  c #5C1A24B10032",
"X  c #5F5F2F2F0F0F",
"o  c #61E426D10000",
"O  c #65CC28A60038",
"+  c #6BF02AEA000C",
"@  c #63632E2E0C0C",
"#  c #73FA2E190002",
"$  c #68E731300C8C",
"%  c #7BFE315E0002",
"&  c #7575343408B3",
"*  c #66E63838199A",
"=  c #78223B9013BE",
"-  c #72723DE81B1B",
";  c #7DFD41C01A9B",
":  c #727242422323",
">  c #75754C4B3030",
",  c #797950503434",
"<  c #840034840009",
"1  c #8A0A36CD0000",
"2  c #8DFF38960010",
"3  c #85853B3B0B0B",
"4  c #93F93AE60007",
"5  c #9BA83DF50006",
"6  c #82823F3F1515",
"7  c #FFFF00BF00BF",
"8  c #FFFF0CB70CB7",
"9  c #FFFF14471447",
"0  c #FFFF1AD21AD2",
"q  c #F6F622222222",
"w  c #FFFF23E423E4",
"e  c #FFFF2AC42AC4",
"r  c #FFA933893389",
"t  c #FFCB3B6E3B6E",
"y  c #9E9E40EB0202",
"u  c #931242820D4D",
"i  c #9AEF44440AB5",
"p  c #8B8B44441494",
"a  c #8CE249F41D1D",
"s  c #97164ACA17D8",
"d  c #A3914135001E",
"f  c #A7A746C70606",
"g  c #ABAB44A00025",
"h  c #B1DC471C002B",
"j  c #B49448E90141",
"k  c #BBF44AF50000",
"l  c #B8B851510C0C",
"z  c #A34D4CF71414",
"x  c #A4A44DCE1515",
"c  c #B73755D61494",
"v  c #88324B4B22CD",
"b  c #90904D4D2020",
"n  c #9E1E54D42323",
"m  c #92E755552C2C",
"M  c #9B9B55D62828",
"N  c #9A1A58D82D2D",
"B  c #91915ADA3636",
"V  c #9E1E5EDE34B4",
"C  c #A1A156AC24CF",
"Z  c #A3A35D072E2E",
"A  c #A2A25EDF32B3",
"S  c #BBBB61B72626",
"D  c #B86264642BD6",
"F  c #ABEB63233272",
"G  c #A33C64973BA2",
"H  c #ACAC68683A90",
"J  c #B6B66A6A36B7",
"K  c #B9B96D6D3B3B",
"L  c #BDBD71713DBE",
"P  c #C1C14E4E0181",
"I  c #CC4B521200E1",
"U  c #C5C456560C0C",
"Y  c #D3AB55550129",
"T  c #D3D25B5B0B8B",
"R  c #C0BF59581515",
"E  c #C7C760601A1A",
"W  c #D5D462B7166C",
"Q  c #DBDA5C5C2C2B",
"!  c #C0C066E72B2B",
"~  c #D7D76D6D2E2E",
"^  c #C8C76E6D3131",
"/  c #C4C470703838",
"(  c #83835E5E4545",
")  c #8E8E67674D4D",
"_  c #9C1B6AEB4A4A",
"`  c #8E8E6D6C5656",
"'  c #94936E6E5555",
"]  c #97D773335ADA",
"[  c #A471699C4310",
"{  c #AC006D1743EE",
"}  c #A34D6C1647F2",
"|  c #B0B06F6F4444",
" . c #AD57731D4C4C",
".. c #BE3E73734242",
"X. c #B58276424C7F",
"o. c #B9B976B64ACB",
"O. c #AC5675CB51A7",
"+. c #AB2A7BFC5CDC",
"@. c #B4B47C7C5757",
"#. c #BBBB7C2651FC",
"$. c #8F8F7C7C6F6F",
"%. c #9A447B2566BC",
"&. c #A2A27F7F6868",
"*. c #D2D25A5A5A5A",
"=. c #E0E04D4D4D4D",
"-. c #F1F144444444",
";. c #FFFF43434343",
":. c #FFFF4DCD4DCD",
">. c #E0E058585858",
",. c #F6F650505050",
"<. c #FF3E53135313",
"1. c #FF295BDB5B5B",
"2. c #C646797945C5",
"3. c #C71B7A2446F1",
"4. c #CD4D7E7E4ACA",
"5. c #EEEE60604A4A",
"6. c #F5F562625F5F",
"7. c #FD7D686864E5",
"8. c #FFFF6BFE6BFE",
"9. c #FFFF75F575F5",
"0. c #FFFF7CFC7CFC",
"q. c #BD6782D75CB2",
"w. c #959583837777",
"e. c #A6FC84DA6E18",
"r. c #BB1085DB63B9",
"t. c #A62589897777",
"y. c #ACAC92117F7F",
"u. c #DADA82824848",
"i. c #DEDE87074CCC",
"p. c #CD2285855555",
"a. c #C46E85DB5CB2",
"s. c #CBCB88885C5C",
"d. c #D757898955D6",
"f. c #D4D4894957D8",
"g. c #EB6B900F5353",
"h. c #EDED96965D5D",
"j. c #C645898960E0",
"k. c #C4438E8E6B6B",
"l. c #D0D08C8C6060",
"z. c #CDCD922B6A9D",
"x. c #DC3194EA65BB",
"c. c #D8D895956913",
"v. c #DFDF9B9B6DC3",
"b. c #C7C79696760F",
"n. c #E53A964062B8",
"m. c #E58F99436666",
"M. c #E6E69B9B6A6A",
"N. c #F6F69D9D6262",
"B. c #F2F29F1F68E8",
"V. c #E5E59F9F7070",
"C. c #DCDCA12078F8",
"Z. c #FEFEA0A06262",
"A. c #FD3CA6A66D6D",
"S. c #EABFA7517AFA",
"D. c #FDFDABEB75B5",
"F. c #F6F6AD137C49",
"G. c #FEA8B1067D7D",
"H. c #84EB84B7849E",
"J. c #8CBB8CBB8CBB",
"K. c #9431941D941D",
"L. c #9B9B97979595",
"P. c #9C409C409C40",
"I. c #B7368B8B8B8B",
"U. c #AD0295EB8731",
"Y. c #B1B19A198A8A",
"T. c #A3229A199414",
"R. c #B4339C1C9494",
"E. c #B6B6A4A49999",
"W. c #A38EA38EA38E",
"Q. c #ABABA8A8A7A7",
"!. c #ABCBABABABAB",
"~. c #BCBCAFAFA6A6",
"^. c #B535B535B535",
"/. c #B8B8B7B7B7B7",
"(. c #BCCABCCABCCA",
"). c #C4C49F9F8686",
"_. c #C0C096969696",
"`. c #FFFF853C853C",
"'. c #FFFF8AF88AF8",
"]. c #FFFF94609460",
"[. c #FFFF9BCE9BCE",
"{. c #DF5FA9A98585",
"}. c #DADAABAB8C8C",
"|. c #C544A7A79494",
" X c #D1D1AAAA9191",
".X c #EC41AE58852F",
"XX c #E9E9B2B28E8E",
"oX c #F4F4B2078585",
"OX c #FECBB4E7841D",
"+X c #F635B6368B4B",
"@X c #FF47BA4C8C8C",
"#X c #E867B7379615",
"$X c #ED42BABA9999",
"%X c #F348B9639393",
"&X c #FE46BE2B936E",
"*X c #C1C1AF2FA2A2",
"=X c #CA49B5B5A827",
"-X c #D3D3BB3AAB2A",
";X c #CCCCBCBCB2B2",
":X c #FFFFA40AA40A",
">X c #FFFFAB86AB86",
",X c #FFFFB2F2B2F2",
"<X c #FFFEBD8ABD8A",
"1X c #FFFFC1409717",
"2X c #FE9BC39B9C74",
"3X c #D353C140B534",
"4X c #D47EC3C3B862",
"5X c #E7E7C4C4ACAC",
"6X c #FEFEC760A26F",
"7X c #FEFEC996A572",
"8X c #FF98CBFEA9DC",
"9X c #E6E6C9C9B635",
"0X c #ECECD0D0BDBD",
"qX c #C419C419C419",
"wX c #CBE1CBCBCBC0",
"eX c #D454CACAC443",
"rX c #DADACF4FC7C7",
"tX c #D400D3E9D3D3",
"yX c #DC00DBEDDBED",
"uX c #FFFFC29DC29D",
"iX c #FFFFCB75CB75",
"pX c #EC96D680C81D",
"aX c #E1E1D4D4CC4B",
"sX c #F5F5D958C646",
"dX c #F5F5DCDCCC4C",
"fX c #E8E8DEDED7D7",
"gX c #FFFFD554D554",
"hX c #F1F1DDDDD0D0",
"jX c #EC2BE2A2DB9B",
"kX c #F6F6E7E7DE5E",
"lX c #F9F9E6E6D9D9",
"zX c #E322E2E2E2E2",
"xX c #EF6FE767E1E1",
"cX c #EFEFE9E9E5E5",
"vX c #FFFFE564E564",
"bX c #F372EB6AE5E5",
"nX c #F348EE18EAEA",
"mX c #FCFCEE6EEAEA",
"MX c #F736F1B1EEAE",
"NX c #FBFBF0F0E8E8",
"BX c #F8F8F59FF3F3",
"VX c #FCD7F599F418",
"CX c #FFF9FFEDFFE9",
/* pixels */
"CXCXCXCXCXU.rXCXCXCXCXCXCXCX4XBXCXCXCXCXCXCXCXCXCXCXCXCXCXCXCXCXCXCXCXCXCXCXCXCXCXCXCXCXCXCXCXCXCXCXCXCXCXCXCXCX",
"CXCXCXCXCX>   Y.CXCXCXCXCXMX  * U.nXCXCXCXCXCXCXCXCXCXCXCXCXCXCXCXCXCXCXCXCXCXCXCXCXCXCXCXCXCXCXCXCXCXCXCXCXCXCX",
"CXCXCXCXBX      ` BXCXCXMX*X      @ e.cXCXCXCXCXCXCXCXCXCXCXCXCXCXCXCXCXCXCXCXCXCXCXCXCXCXCXCXCXCXCXCXCXCXCXCXCX",
"CXCXCXCXeX        $ A A.2.V i.M . . . o ] fXCXCXCXCXCXCXCXCXCXCXCXCXCXCXCXCXCXCXCXCXCXCXCXCXCXCXCXCXCXCXCXCXCXCX",
"CXCXCXCXY.          o a i.h.F 2.h.a o o o O ] fXCXCXCXCXCXCXCXCXCXCXCXCXCXCXCXCXCXCXCXCXCXCXCXCXCXCXCXCXCXCXCXCX",
"CXCXCXCX`           .   a J Z.4.N h.d.= O O O + _ aXCXCXCXCXCXCXCXCXCXCXCXCXCXCXCXCXCXCXCXCXCXCXCXCXCXCXCXCXCXCX",
"CXCXCXCX:         . . . o 6 M h.N.F ..A.2.# O O O # B 4XCXCXCXCXCXCXCXCXCXCXCXCXCXCXCXCXCXCXCXCXCXCXCXCXCXCXCXCX",
"CXCXCXcX        . . . . o o & Z 2.A.d.A n.B.F # # + # # m -XCXCXCXCXCXCXCXCXCXCXCXCXCXCXCXCXCXCXCXCXCXCXCXCXCXCX",
"CXCXCX;X        . . . o o o O + F A B.A.H { D.n.b # # % % # m =XCXCXCXCXCXCXCXCXCXCXCXCXCXCXCXCXCXCXCXCXCXCXCXCX",
"CXCXCXt.      . . . . o o o O O O n H d.D.n.V m.G.p.6 % % % % < b |.BXCXCXCXCXCXCXCXCXCXCXCXCXCXCXCXCXCXCXCXCXCX",
"CXCXCX(       . . . o o o O O O O + p o.H D.D.o.| G.F...< % % < % < a b.MXCXCXCXCXCXCXCXCXCXCXCXCXCXCXCXCXCXCXCX",
"CXCXCXX     . . . . o o o O O + + + # & 4.A m.D.M.A x.OXS.F < < < < 1 1 u b.MXCXCXCXCXCXCXCXCXCXCXCXCXCXCXCXCXCX",
"CXCXfX      . . o o o o O O + O + + + # # 2.o.o.G.G.#.| OXOXv.s 1 1 1 1 2 2 s r.bXCXCXCXCXCXCXCXCXCXCXCXCXCXCXCX",
"CXCX*X    . . . . o o o O + O + + # + # # # n x.G S.OXS.G z.@X@Xf.u 1 1 2 2 4 4 5 q.jXCXCXCXCXCXCXCXCXCXCXCXCXCX",
"CXCX%.  . . . . o o o O O + + + + + # # # # % p M.| s.OXOXa.{ oX@X+X..2 4 2 4 4 4 4 5 X.pXCXCXCXCXCXCXCXCXCXCXCX",
"CXCX,   . . . o o o o O + O + + # + # # # # % % 3 f.l.[ oX@XoX .z.1X&X.XD 4 4 5 4 5 5 y y o.pXCXCXCXCXCXCXCXCXCX",
"CXVX.   . . o o o O O O + + O # + # # # # % % % % % J F.[ c.&X&Xz.[ +X2X2XM.z 5 5 5 5 y y y d K 9XCXCXCXCXCXCXCX",
"CXrX. . . o o o o o + O O + + + # # # # # % % % % < < C .Xs. .@X&X+XO.k.2X2X2Xl.i d 5 d d y d d g L 9XCXCXCXCXCX",
"CXR.. . . o o o O O O + + # + # # # # % # % % < < < < < u V.S.[ .X&X2XC.} XX6X6X%X2.d d d g g g g g z.CXCXCXCXCX",
"CX] . . . o o O O O O + + + + # # # # # % % % % % < < < 1 3 4.&X@.@.2X2X2X@.r.6X8X8X.XS d d g g g g kXCXCXCXCXCX",
"CX: . . o o o O O O + + + # # + # # # % % % % % % < < < 1 1 1 J @XC.} %X6X6X{._ XX8X8X8XM.c g g g s.CXCXCXCXCXCX",
"nX. . o o o o O + + + + + + # # # % # % % % < % < < 1 < 1 1 2 2 C +X%XO.z.6X6X7Xr.r.8X8X#X{.j g h hXCXCXCXCXCXCX",
"4X. o o o O O O O + + # # # # # # # % % % % < < < < 1 1 1 2 2 2 4 i .X6Xb.O.&X6X#X).=XzXzX Xh h 2.CXCXCXCXCXCXCX",
"y.o . o O O O O + + + + + # # # % % % % < % < < < 1 1 1 2 2 2 2 2 4 M.6X$X X=XyXyXzXzXyXzXD h h 0XCXCXCXCXCXCXCX",
") . o o O O O O + + # # + # # % % % % % < % < < < 1 1 1 2 2 2 4 4 4 3XtXtXtXyXyXyXyXyXyX-Xh h / CXCXCXCXCXCXCXCX",
"- o o O O O + + + + + # # # # % # % % % % < < < 1 1 1 2 2 2 4 4 4 n tXtXtXtXtXtXyXyXyXyX2.h j 5XCXCXCXCXCXCXCXCX",
"@ o O o O O O + + # + # # % # # % % % < < < < < 1 1 1 2 2 2 4 4 5 O.wXwXtXtXtXtXtXtXyX4Xh j ! CXCXCXCXCXCXCXCXCX",
"- o O O O + O # + + # # # # % % % % < % < < < 1 < 1 1 2 2 2 4 4 5 Y.wXwXwXwXtXtXtXtXtXa.j j #XCXCXCXCXCXCXCXCXCX",
"&.O O O + O + # # # # # # % % % % % < < < 1 < 1 1 1 2 2 4 4 4 4 4 ~.wXwXwXwXwXwXtXtXeXl j R VXCXCXCXCXCXCXCXCXCX",
"nX- O O + + + + + # # # # # % % % < % < < < 1 1 1 2 2 2 4 4 4 4 z qXqXqXwXwXwXwXwXwXb.k k {.CXCXCXCXCXCXCXCXCXCX",
"CXaX= O + + # # # # # # % % % % % < < < < 1 1 1 2 2 4 4 4 4 5 4 { qXqXqXqXqXwXwXwXwXc k U BXCXCXCXCXCXCXCXCXCXCX",
"CXCXfX= + O # + # # # % # % % % < < < < < 1 1 2 2 2 4 4 4 4 4 5 e.qX(.qXqXqXqXqXwX).k k C.CXCXCXCXCXCXCXCXCXCXCX",
"CXCXCXfX; + # # # # # % % % % < < < < 1 < 1 1 2 2 2 4 4 4 5 5 5 E.(.(.qXqXqXqXqXqXD k U NXCXCXCXCXCXCX0.CXCXCXCX",
"CXCXCXCXjX; + # # # # % % % < % % < < 1 1 1 2 2 2 4 4 4 4 4 4 i /.(.(.(.(.(.(.qX*Xk k x.CXCXCXCXCXCXCXw `.CXCXCX",
"CXCXCXCXCXjXv # % # % % % % % < < 1 < 1 1 1 2 2 4 4 4 4 5 5 5 A ^././.(.(.(.(.(.2.P P kXCXCXCXCXCXCXCXe 7 uXCXCX",
"CXCXCXCXCXCXxXv # % % % % % < < < < 1 1 1 1 2 4 4 4 4 4 4 5 5 +.^.^.^./.(.(.(.~.k P d.CXCXCXCXCXuX'.`.0 7 e VXCX",
"CXCXCXCXCXCXCXxXv % % % < < < < < 1 1 1 1 2 2 2 4 4 4 5 5 5 5 U.!.^._.>.-.t :.1.5.Q dXCXCXCXCXCXVX8.0 7 7 7 '.CX",
"CXCXCXCXCXCXCXCXnXm % < % < < < < 1 1 1 2 2 4 4 4 4 4 5 5 5 y Q.!.!.=.w r ;.<.8.9.0.[.mXCXCXCXCXCXVX;.8 7 7 9 VX",
"CXCXCXCXCXCXCXCXCXnXm % % < < 1 1 1 1 2 2 4 4 4 4 4 5 5 5 5 C !.!.!.q e t :.7.9.`.].].>XCXCXCXCXCXCXuX8 7 7 7 :X",
"CXCXCXCXCXCXCXCXCXCXnXN < < < < 1 1 2 2 2 2 4 4 4 5 4 5 5 5 } !.!.I.0 e ;.<.8.0.].:X>X>XvXCXCXCXCXCXCXt 7 7 7 <.",
"CXCXCXCXCXCXCXCXCXCXCXMXV < 1 1 1 1 2 2 2 4 4 4 4 5 5 5 5 5 t.W.W.*.0 r ,.6.8.`.[.>X<X<XgXCXCXCXCXCXCX`.7 7 7 0 ",
"CXCXCXCXCXCXCXCXCXCXCXCXMXG 1 1 1 1 2 4 4 4 4 5 5 5 5 5 d d L.W.W.I.T.Q.!.D I ~ <X,XiXiXiXCXCXCXCXCXCX:X7 7 7 8 ",
"CXCXCXCXCXCXCXCXCXCXCXCXCXMXG 1 2 2 2 4 4 4 4 4 5 5 5 5 d x P.W.W.W.W.W.Y.I I $XCX,X<X<X<XCXCXCXCXCXCX`.8 7 7 0 ",
"CXCXCXCXCXCXCXCXCXCXCXCXCXCXBX[ 2 2 2 4 4 4 4 5 5 5 5 d 5 _ P.P.P.W.W.W.L I W VXCX<X,X,X:XvXCXCXCXVX>Xw 7 7 7 <.",
"CXCXCXCXCXCXCXCXCXCXCXCXCXCXCXBX{ 2 2 4 4 4 5 5 5 5 d d d %.L.P.P.P.W.T.I I XXCXCXuX[.:X[.'.].'.8.;.e 9 7 7 7 uX",
"CXCXCXCXCXCXCXCXCXCXCXCXCXCXCXCXCXX.4 4 4 5 4 5 5 5 d 5 d w.L.P.L.P.P.#.Y T VXCXCXgX'.'.`.0.8.1.;.t w 8 7 7 0.CX",
"CXCXCXCXCXCXCXCXCXCXCXCXCXCXCXCXCXVXX.2 5 4 5 5 5 5 d d z K.K.L.P.L.L.U I V.CXCXCXCX].9.9.8.1.<.t e 0 7 9 :XCXCX",
"CXCXCXCXCXCXCXCXCXCXCXCXCXCXCXCXCXCXVX#.5 5 5 5 d 5 d d A J.K.K.K.L.+.I T NXCXCXCXCXVX>X8.1.:.;.t ;.1.>XVXCXCXCX",
"CXCXCXCXCXCXCXCXCXCXCXCXCXCXCXCXCXCXCXCXq.5 5 5 5 d d d ' J.J.K.K.K.E Y n.CXCXCXCXCXCXCXCXVXVXVXCXCXCXCXCXCXCXCX",
"CXCXCXCXCXCXCXCXCXCXCXCXCXCXCXCXCXCXCXCXVXq.5 d d d d d $.J.J.J.J.e.Y Y lXCXCXCXCXCXCXCXCXCXCXCXCXCXCXCXCXCXCXCX",
"CXCXCXCXCXCXCXCXCXCXCXCXCXCXCXCXCXCXCXCXCXBXj.d d d d f H.J.J.J.J.D Y g.CXCXCXCXCXCXCXCXCXCXCXCXCXCXCXCXCXCXCXCX",
"CXCXCXCXCXCXCXCXCXCXCXCXCXCXCXCXCXCXCXCXCXCXCXa.d d d z H.H.H.J.w.I Y dXCXCXCXCXCXCXCXCXCXCXCXCXCXCXCXCXCXCXCXCX",
"CXCXCXCXCXCXCXCXCXCXCXCXCXCXCXCXCXCXCXCXCXCXCXCXz.d d z H.H.H.H.J Y u.CXCXCXCXCXCXCXCXCXCXCXCXCXCXCXCXCXCXCXCXCX",
"CXCXCXCXCXCXCXCXCXCXCXCXCXCXCXCXCXCXCXCXCXCXCXCXCXz.g h ] H.H.%.Y Y sXCXCXCXCXCXCXCXCXCXCXCXCXCXCXCXCXCXCXCXCXCX",
"CXCXCXCXCXCXCXCXCXCXCXCXCXCXCXCXCXCXCXCXCXCXCXCXCXCX}.g I S S Y Y %XCXCXCXCXCXCXCXCXCXCXCXCXCXCXCXCXCXCXCXCXCXCX",
"CXCXCXCXCXCXCXCXCXCXCXCXCXCXCXCXCXCXCXCXCXCXCXCXCXCXCXpX^ W W i.sXCXCXCXCXCXCXCXCXCXCXCXCXCXCXCXCXCXCXCXCXCXCXCX"
};
